# AST/ASF file generated using VICON BodyLanguage
# -----------------------------------------------
:version 1.10
:name VICON
:units
  mass 1.0
  length 0.45
  angle deg
:documentation
   .ast/.asf automatically generated from VICON data using
   VICON BodyBuilder and BodyLanguage model FoxedUp or BRILLIANT.MOD
:root
   order TX TY TZ RX RY RZ
   axis XYZ
   position 0 0 0  
   orientation 0 0 0 
:bonedata
  begin
     id 1 
     name lhipjoint
     direction 0.541323 -0.757556 0.364798 
     length 2.47576 
     axis 0 0 0  XYZ
  end
  begin
     id 2 
     name lfemur
     direction 0.34202 -0.939693 0  
     length 7.46493  
     axis 0 0 20  XYZ
    dof rx ry rz
    limits (-160.0 20.0)
           (-70.0 70.0)
           (-60.0 70.0)
  end
  begin
     id 3 
     name ltibia
     direction 0.34202 -0.939693 0   
     length 7.73805   
     axis 0 0 20   XYZ
    dof rx
    limits (-10.0 170.0)
  end
  begin
     id 4 
     name lfoot
     direction 0.107174 -0.294458 0.949636   
     length 2.25864   
     axis -90 7.62852e-016 20   XYZ
    dof rx rz
    limits (-45.0 90.0)
           (-70.0 20.0)
  end
  begin
     id 5 
     name ltoes
     direction 1.53606e-011 -4.21934e-011 1   
     length 1.12451   
     axis -90 7.62852e-016 20   XYZ
    dof rx
    limits (-90.0 20.0)
  end
  begin
     id 6 
     name rhipjoint
     direction -0.524745 -0.766967 0.36933   
     length 2.44538  
     axis 0 0 0  XYZ 
  end
  begin
     id 7 
     name rfemur
     direction -0.34202 -0.939693 0   
     length 7.61604   
     axis 0 0 -20   XYZ
    dof rx ry rz
    limits (-160.0 20.0)
           (-70.0 70.0)
           (-70.0 60.0)
  end
  begin
     id 8 
     name rtibia
     direction -0.34202 -0.939693 0   
     length 7.61056   
     axis 0 0 -20   XYZ
    dof rx
    limits (-10.0 170.0)
 end
 begin
     id 9 
     name rfoot
     direction -0.12616 -0.346623 0.929482   
     length 2.46372  
     axis -90 -7.62852e-016 -20   XYZ
    dof rx rz
    limits (-45.0 90.0)
           (-20.0 70.0)
  end
  begin
     id 10 
     name rtoes
     direction -1.53531e-011 -4.22004e-011 1   
     length 1.21611   
     axis -90 -7.62852e-016 -20   XYZ
    dof rx
    limits (-90.0 20.0)
  end
  begin
     id 11 
     name lowerback
     direction -0.000778023 0.997293 -0.0735223   
     length 2.06139   
     axis 0 0 0   XYZ
    dof rx ry rz
    limits (-20.0 45.0)
           (-30.0 30.0)
           (-30.0 30.0)
  end
  begin
     id 12 
     name upperback
     direction 0.0222598 0.999722 -0.0078355   
     length 2.06383   
     axis 0 0 0   XYZ
    dof rx ry rz
    limits (-20.0 45.0)
           (-30.0 30.0)
           (-30.0 30.0)
  end
  begin
     id 13 
     name thorax
     direction 0.0219654 0.999405 0.0265994   
     length 2.07163   
     axis 0 0 0   XYZ
    dof rx ry rz
    limits (-20.0 45.0)
           (-30.0 30.0)
           (-30.0 30.0)
  end
  begin
     id 14 
     name lowerneck
     direction 0.0213282 0.988147 0.15202   
     length 1.75969   
     axis 0 0 0   XYZ
    dof rx ry rz
    limits (-20.0 45.0)
           (-30.0 30.0)
           (-30.0 30.0)
  end
  begin
     id 15 
     name upperneck
     direction -0.0546456 0.982624 -0.177379   
     length 1.79244   
     axis 0 0 0   XYZ
    dof rx ry rz
    limits (-20.0 45.0)
           (-30.0 30.0)
           (-30.0 30.0)
  end
  begin
     id 16
     name head
     direction -0.0199987 0.996855 -0.076686  
     length 1.80555  
     axis 0 0 0   XYZ
    dof rx ry rz
    limits (-20.0 45.0)
           (-30.0 30.0)
           (-30.0 30.0)
  end
  begin
     id 17 
     name lclavicle
     direction 0.929565 0.363219 -0.063096  
     length 3.55722  
     axis 0 0 0   XYZ
    dof ry rz
    limits (-20.0 10.0)
           (0.0 20.0)
  end
  begin
     id 18 
     name lhumerus
     direction 1 -4.48993e-011 -2.36203e-027   
     length 4.92785   
     axis 180 -30 -90   XYZ
    dof rx ry rz
    limits (-60.0 90.0)
           (-90.0 90.0)
           (-90.0 90.0)
  end
  begin
     id 19
     name lradius
     direction 1 -4.48947e-011 2.02997e-027   
     length 3.44052   
     axis 180 -30 -90   XYZ
    dof rx
    limits (-10.0 170.0)
  end
  begin
     id 20
     name lwrist
     direction 1 -4.48962e-011 1.45991e-027   
     length 1.72026   
     axis 1.49639e-024 90 90   XYZ
    dof ry
    limits (-180.0 0.0)
 end
  begin
     id 21 
     name lhand
     direction 1 -4.48984e-011 2.91906e-027   
     length 0.654326   
     axis -1.863e-015 90 90   XYZ
    dof rx rz
    limits (-90.0 90.0)
           (-45.0 45.0)
  end
  begin
     id 22 
     name lfingers
     direction 1 -4.48961e-011 5.83968e-027   
     length 0.527534   
     axis -3.72598e-015 90 90   XYZ
    dof rx
    limits (0.0 90.0)
  end
  begin
     id 23
     name lthumb
     direction 0.707107 -6.34963e-011 0.707107   
     length 0.757437   
     axis -90 45 -6.68868e-015   XYZ
    dof rx rz
    limits (-45.0 45.0)
           (-45.0 45.0)
  end
  begin
     id 24 
     name rclavicle
     direction -0.902944 0.422599 -0.0781198   
     length 3.54432  
     axis 0 0 0   XYZ 
    dof ry rz
    limits (-10.0 20.0)
           (-20.0 0.0)
  end
  begin
     id 25 
     name rhumerus
     direction -1 -4.48953e-011 -4.75835e-028  
     length 5.09181   
     axis 180 30 90   XYZ
    dof rx ry rz
    limits (-90.0 60.0)
           (-90.0 90.0)
           (-90.0 90.0)
  end
  begin
     id 26 
     name rradius
     direction -1 -4.48986e-011 -3.25889e-027   
     length 3.49865   
     axis 180 30 90   XYZ
    dof rx
    limits (-10.0 170.0)
  end
  begin
     id 27 
     name rwrist
     direction -1 -4.48963e-011 1.45989e-027   
     length 1.74933   
     axis 1.49639e-024 -90 -90   XYZ
    dof ry
    limits (-180.0 0.0)
  end
  begin
     id 28
     name rhand
     direction -1 -4.49003e-011 2.91844e-027   
     length 0.66641   
     axis -1.863e-015 -90 -90   XYZ
    dof rx rz
    limits (-90.0 90.0)
           (-45.0 45.0)
  end
  begin
     id 29
     name rfingers
     direction -1 -4.48973e-011 5.83886e-027   
     length 0.537277   
     axis -3.72598e-015 -90 -90   XYZ
    dof rx
    limits (0.0 90.0)
  end
  begin
     id 30
     name rthumb
     direction -0.707107 -6.34976e-011 0.707107   
     length 0.771425   
     axis -90 -45 6.68868e-015   XYZ
    dof rx rz
    limits (-45.0 45.0)
           (-45.0 45.0)
  end
:hierarchy
  begin
    root lhipjoint rhipjoint lowerback
    lhipjoint lfemur
    lfemur ltibia
    ltibia lfoot
    lfoot ltoes
    rhipjoint rfemur
    rfemur rtibia
    rtibia rfoot
    rfoot rtoes
    lowerback upperback
    upperback thorax
    thorax lowerneck lclavicle rclavicle
    lowerneck upperneck
    upperneck head
    lclavicle lhumerus
    lhumerus lradius
    lradius lwrist
    lwrist lhand lthumb
    lhand lfingers
    rclavicle rhumerus
    rhumerus rradius
    rradius rwrist
    rwrist rhand rthumb
    rhand rfingers
  end

#!OML:ASF H:\LiuWeirdWalks\Patient Classification 1\Patient 1\Session 1\male.ASF
:FULLY-SPECIFIED
:DEGREES
100
root 1.5604 17.838 -28.1516 0.167785 6.63861 -1.39284
lowerback 9.81704 -3.37729 -10.1983
upperback 0.766255 -5.40309 5.01533
thorax -3.24763 -2.55049 11.8394
lowerneck -23.0307 6.13255 5.42395
upperneck 29.751 9.20471 -6.78344
head 14.7715 3.5812 -1.90503
rclavicle 3.47873e-016 2.46493e-014
rhumerus -37.6439 10.0183 -74.0212
rradius 41.6909
rwrist -9.07646
rhand -10.4788 3.64111
rfingers 7.12502
rthumb 15.5225 -25.7558
lclavicle 3.47873e-016 2.46493e-014
lhumerus -35.44 19.7046 82.1363
lradius 28.3583
lwrist 1.91339
lhand -15.0347 0.840617
lfingers 7.12502
lthumb 11.1313 30.5254
rfemur -26.9472 -10.5996 10.9025
rtibia 73.9822
rfoot 6.94043 -6.09674
rtoes -3.37422
lfemur -5.52871 3.72545 -24.8881
ltibia 25.0879
lfoot -14.9899 5.56821
ltoes -6.15705
101
root 1.56032 17.8356 -28.1452 0.189188 6.62829 -1.40125
lowerback 9.85142 -3.17249 -10.1896
upperback 0.789896 -5.13387 4.90587
thorax -3.3269 -2.40989 11.6922
lowerneck -23.0117 5.68111 5.08049
upperneck 29.7592 8.51086 -6.32561
head 14.6655 3.3137 -1.80079
rclavicle -5.41688e-015 -3.18055e-015
rhumerus -37.8357 9.34045 -74.0556
rradius 41.8281
rwrist -9.00036
rhand -10.516 3.68932
rfingers 7.12502
rthumb 15.4867 -25.7104
lclavicle -5.41688e-015 -3.18055e-015
lhumerus -35.2805 19.0088 82.2051
lradius 28.2587
lwrist 1.93427
lhand -14.9916 0.891803
lfingers 7.12502
lthumb 11.1729 30.5743
rfemur -26.9612 -10.6059 10.9249
rtibia 74.0484
rfoot 6.94386 -6.08019
rtoes -3.41099
lfemur -5.58194 3.71795 -24.8848
ltibia 25.1822
lfoot -15.0392 5.62091
ltoes -6.19669
102
root 1.56027 17.8331 -28.1384 0.214074 6.59895 -1.40217
lowerback 9.86531 -3.00569 -10.1677
upperback 0.814487 -4.91176 4.81512
thorax -3.37911 -2.2955 11.5592
lowerneck -22.9768 5.34478 4.8458
upperneck 29.7413 7.98473 -5.98205
head 14.5769 3.11388 -1.72659
rclavicle 3.11098e-014 1.98785e-015
rhumerus -37.9775 8.80511 -74.0884
rradius 41.9499
rwrist -8.92031
rhand -10.552 3.74069
rfingers 7.12502
rthumb 15.452 -25.6617
lclavicle 3.11098e-014 1.98785e-015
lhumerus -35.1665 18.448 82.2557
lradius 28.1754
lwrist 1.92357
lhand -14.971 0.861392
lfingers 7.12502
lthumb 11.1927 30.5428
rfemur -26.9831 -10.5993 10.9363
rtibia 74.1129
rfoot 6.97002 -6.06825
rtoes -3.42449
lfemur -5.63207 3.72919 -24.888
ltibia 25.272
lfoot -15.0914 5.66847
ltoes -6.24371
103
root 1.56007 17.8307 -28.131 0.242427 6.55916 -1.3993
lowerback 9.88101 -2.95541 -10.1453
upperback 0.829527 -4.84305 4.81014
thorax -3.39265 -2.26092 11.5353
lowerneck -22.9489 5.30521 4.83461
upperneck 29.6953 7.91521 -5.94589
head 14.5426 3.08981 -1.72369
rclavicle 1.95306e-014 -1.43125e-014
rhumerus -37.9852 8.72555 -74.1028
rradius 42.0493
rwrist -8.88706
rhand -10.5794 3.78541
rfingers 7.12502
rthumb 15.4257 -25.619
lclavicle 1.95306e-014 -1.43125e-014
lhumerus -35.1705 18.324 82.2776
lradius 28.1268
lwrist 1.86342
lhand -14.9861 0.732405
lfingers 7.12502
lthumb 11.1782 30.4146
rfemur -27.0092 -10.5868 10.9414
rtibia 74.1721
rfoot 7.01233 -6.08311
rtoes -3.39448
lfemur -5.67875 3.75707 -24.8925
ltibia 25.3582
lfoot -15.1482 5.70419
ltoes -6.28341
104
root 1.55969 17.8283 -28.1232 0.272708 6.51337 -1.39835
lowerback 9.89477 -2.90498 -10.1248
upperback 0.843876 -4.77419 4.80546
thorax -3.40563 -2.22627 11.5126
lowerneck -22.9126 5.27371 4.82883
upperneck 29.6417 7.85354 -5.90494
head 14.5036 3.07068 -1.71822
rclavicle 6.85807e-015 -3.93594e-014
rhumerus -37.9905 8.65219 -74.123
rradius 42.1447
rwrist -8.85468
rhand -10.5993 3.84057
rfingers 7.12502
rthumb 15.4064 -25.5653
lclavicle 6.85807e-015 -3.93594e-014
lhumerus -35.1782 18.1973 82.2956
lradius 28.0746
lwrist 1.78127
lhand -15.0292 0.544189
lfingers 7.12502
lthumb 11.1366 30.2287
rfemur -27.0366 -10.5728 10.9468
rtibia 74.2234
rfoot 7.06502 -6.10077
rtoes -3.3674
lfemur -5.72522 3.80496 -24.8905
ltibia 25.441
lfoot -15.2061 5.71994
ltoes -6.32552
105
root 1.55892 17.8262 -28.1148 0.301614 6.4756 -1.40512
lowerback 9.90313 -2.85991 -10.1023
upperback 0.864623 -4.7116 4.80264
thorax -3.40698 -2.19596 11.4905
lowerneck -22.8597 5.2582 4.842
upperneck 29.5475 7.80685 -5.86799
head 14.4455 3.06057 -1.71437
rclavicle -7.82218e-014 2.18663e-014
rhumerus -37.988 8.5915 -74.1525
rradius 42.2444
rwrist -8.82604
rhand -10.612 3.889
rfingers 7.12502
rthumb 15.3942 -25.5179
lclavicle -7.82218e-014 2.18663e-014
lhumerus -35.1733 18.0623 82.3166
lradius 28.0307
lwrist 1.7375
lhand -15.0774 0.395163
lfingers 7.12502
lthumb 11.0901 30.0821
rfemur -27.056 -10.5671 10.9592
rtibia 74.264
rfoot 7.11564 -6.1227
rtoes -3.35943
lfemur -5.76675 3.85884 -24.8751
ltibia 25.5194
lfoot -15.264 5.71833
ltoes -6.37251
106
root 1.5578 17.8243 -28.106 0.325422 6.45205 -1.41563
lowerback 9.915 -2.82111 -10.0797
upperback 0.892054 -4.65748 4.80136
thorax -3.40066 -2.1708 11.4706
lowerneck -22.8131 5.24234 4.85734
upperneck 29.463 7.76118 -5.8361
head 14.3937 3.05003 -1.71278
rclavicle -1.98785e-015 2.78299e-015
rhumerus -37.9771 8.5444 -74.1904
rradius 42.3508
rwrist -8.81285
rhand -10.6313 3.90482
rfingers 7.12502
rthumb 15.3756 -25.5035
lclavicle -1.98785e-015 2.78299e-015
lhumerus -35.1583 17.9224 82.3432
lradius 28.0055
lwrist 1.74379
lhand -15.1107 0.341379
lfingers 7.12502
lthumb 11.0579 30.0301
rfemur -27.0618 -10.5765 10.972
rtibia 74.2939
rfoot 7.16189 -6.13984
rtoes -3.39081
lfemur -5.79825 3.90916 -24.8516
ltibia 25.5893
lfoot -15.317 5.70304
ltoes -6.42131
107
root 1.55643 17.8227 -28.0969 0.345826 6.44577 -1.42437
lowerback 9.93737 -2.79129 -10.0595
upperback 0.923107 -4.61648 4.80046
thorax -3.39253 -2.15251 11.4544
lowerneck -22.7881 5.23467 4.87071
upperneck 29.3924 7.72609 -5.79687
head 14.353 3.04401 -1.70557
rclavicle -4.17448e-014 -2.06736e-014
rhumerus -37.9608 8.51388 -74.2364
rradius 42.4655
rwrist -8.80477
rhand -10.657 3.90418
rfingers 7.12502
rthumb 15.3509 -25.506
lclavicle -4.17448e-014 -2.06736e-014
lhumerus -35.1398 17.7884 82.3697
lradius 28.0004
lwrist 1.79337
lhand -15.1178 0.353653
lfingers 7.12502
lthumb 11.0511 30.0427
rfemur -27.0535 -10.6046 10.9781
rtibia 74.3139
rfoot 7.20029 -6.14907
rtoes -3.45787
lfemur -5.81952 3.94854 -24.8276
ltibia 25.6484
lfoot -15.3615 5.68141
ltoes -6.46818
108
root 1.55497 17.8214 -28.0875 0.367809 6.46309 -1.42343
lowerback 9.96826 -2.77436 -10.0474
upperback 0.952483 -4.59446 4.79867
thorax -3.38528 -2.14349 11.4444
lowerneck -22.7785 5.24468 4.88633
upperneck 29.3302 7.7116 -5.74443
head 14.3202 3.0484 -1.68913
rclavicle 1.38652e-014 -4.37326e-015
rhumerus -37.9386 8.49989 -74.2887
rradius 42.5763
rwrist -8.79401
rhand -10.6913 3.90569
rfingers 7.12502
rthumb 15.3178 -25.507
lclavicle 1.38652e-014 -4.37326e-015
lhumerus -35.1216 17.6734 82.3907
lradius 28.0123
lwrist 1.88115
lhand -15.0914 0.434502
lfingers 7.12502
lthumb 11.0766 30.1222
rfemur -27.0348 -10.6584 10.9672
rtibia 74.3258
rfoot 7.23185 -6.14646
rtoes -3.52916
lfemur -5.83494 3.96459 -24.8137
ltibia 25.6975
lfoot -15.3989 5.65719
ltoes -6.52672
109
root 1.55368 17.8202 -28.078 0.396877 6.49174 -1.41475
lowerback 10.0012 -2.76581 -10.036
upperback 0.974557 -4.58412 4.79568
thorax -3.38391 -2.13956 11.435
lowerneck -22.7689 5.259 4.91348
upperneck 29.2821 7.70579 -5.70841
head 14.2958 3.05519 -1.6798
rclavicle 4.22914e-014 -7.95139e-016
rhumerus -37.9217 8.49558 -74.3423
rradius 42.6841
rwrist -8.78721
rhand -10.7273 3.91186
rfingers 7.12502
rthumb 15.2832 -25.5035
lclavicle 4.22914e-014 -7.95139e-016
lhumerus -35.1154 17.5756 82.4054
lradius 28.0405
lwrist 1.98149
lhand -15.0419 0.573305
lfingers 7.12502
lthumb 11.1243 30.2584
rfemur -27.0163 -10.7274 10.9423
rtibia 74.3313
rfoot 7.25498 -6.13683
rtoes -3.57689
lfemur -5.85376 3.95201 -24.8108
ltibia 25.7392
lfoot -15.4298 5.64416
ltoes -6.57218
110
root 1.55236 17.8193 -28.0684 0.432812 6.52311 -1.40443
lowerback 10.0264 -2.75974 -10.0202
upperback 0.9928 -4.57613 4.78936
thorax -3.38236 -2.13669 11.419
lowerneck -22.7722 5.2791 4.94323
upperneck 29.2584 7.70541 -5.66263
head 14.2849 3.0653 -1.66593
rclavicle 6.80837e-015 3.26007e-014
rhumerus -37.9126 8.48201 -74.3979
rradius 42.7876
rwrist -8.77542
rhand -10.7565 3.94092
rfingers 7.12502
rthumb 15.2551 -25.4766
lclavicle 6.80837e-015 3.26007e-014
lhumerus -35.1131 17.4807 82.4125
lradius 28.0638
lwrist 2.05142
lhand -14.9977 0.687858
lfingers 7.12502
lthumb 11.167 30.3707
rfemur -27.0011 -10.7979 10.9135
rtibia 74.3319
rfoot 7.26629 -6.13004
rtoes -3.59453
lfemur -5.87605 3.92248 -24.8111
ltibia 25.7795
lfoot -15.4602 5.64161
ltoes -6.60975
